<?xml version="1.0" encoding="UTF-8" standalone="no"?>
<!DOCTYPE svg PUBLIC "-//W3C//DTD SVG 1.1//EN"
 "http://www.w3.org/Graphics/SVG/1.1/DTD/svg11.dtd">
<!-- Generated by graphviz version 2.47.1 (0)
 -->
<!-- Pages: 1 -->
<svg width="154pt" height="207pt"
 viewBox="0.00 0.00 154.00 207.00" xmlns="http://www.w3.org/2000/svg" xmlns:xlink="http://www.w3.org/1999/xlink">
<g id="graph0" class="graph" transform="scale(1 1) rotate(0) translate(4 203)">
<polygon fill="white" stroke="transparent" points="-4,4 -4,-203 150,-203 150,4 -4,4"/>
<text text-anchor="middle" x="73" y="-3.8" font-family="Times,serif" font-size="14.00">G</text>
<!-- A -->
<g id="node1" class="node">
<title>A</title>
<ellipse fill="none" stroke="#8b4513" cx="41" cy="-181" rx="18" ry="18"/>
<text text-anchor="middle" x="41" y="-177.3" font-family="Arial" font-size="14.00" fill="#8b4513">A</text>
</g>
<!-- D -->
<g id="node2" class="node">
<title>D</title>
<ellipse fill="none" stroke="#8b4513" cx="18" cy="-109" rx="18" ry="18"/>
<text text-anchor="middle" x="18" y="-105.3" font-family="Arial" font-size="14.00" fill="#8b4513">D</text>
</g>
<!-- A&#45;&#45;D -->
<g id="edge1" class="edge">
<title>A&#45;&#45;D</title>
<path fill="none" stroke="#4d4d4d" d="M35.67,-163.76C32,-152.62 27.16,-137.87 23.46,-126.63"/>
</g>
<!-- C -->
<g id="node3" class="node">
<title>C</title>
<ellipse fill="none" stroke="#8b4513" cx="64" cy="-37" rx="18" ry="18"/>
<text text-anchor="middle" x="64" y="-33.3" font-family="Arial" font-size="14.00" fill="#8b4513">C</text>
</g>
<!-- D&#45;&#45;C -->
<g id="edge2" class="edge">
<title>D&#45;&#45;C</title>
<path fill="none" stroke="#4d4d4d" d="M27.53,-93.5C35.43,-81.48 46.59,-64.49 54.48,-52.48"/>
</g>
<!-- C&#45;&#45;A -->
<g id="edge3" class="edge">
<title>C&#45;&#45;A</title>
<path fill="none" stroke="#4d4d4d" d="M61.27,-54.83C56.85,-82.14 48.16,-135.82 43.73,-163.15"/>
</g>
<!-- B -->
<g id="node4" class="node">
<title>B</title>
<ellipse fill="none" stroke="#8b4513" cx="110" cy="-109" rx="18" ry="18"/>
<text text-anchor="middle" x="110" y="-105.3" font-family="Arial" font-size="14.00" fill="#8b4513">B</text>
</g>
<!-- B&#45;&#45;C -->
<g id="edge4" class="edge">
<title>B&#45;&#45;C</title>
<path fill="none" stroke="#4d4d4d" d="M100.47,-93.5C92.57,-81.48 81.41,-64.49 73.52,-52.48"/>
</g>
<!-- B&#45;&#45;B -->
<g id="edge5" class="edge">
<title>B&#45;&#45;B</title>
<path fill="none" stroke="#4d4d4d" d="M124.04,-120.76C134.91,-125.15 146,-121.23 146,-109 146,-96.77 134.91,-92.85 124.04,-97.24"/>
</g>
<!-- E -->
<g id="node5" class="node">
<title>E</title>
<ellipse fill="none" stroke="#8b4513" cx="95" cy="-181" rx="18" ry="18"/>
<text text-anchor="middle" x="95" y="-177.3" font-family="Arial" font-size="14.00" fill="#8b4513">E</text>
</g>
</g>
</svg>
