<?xml version="1.0" encoding="UTF-8" standalone="no"?>
<!DOCTYPE svg PUBLIC "-//W3C//DTD SVG 1.1//EN"
 "http://www.w3.org/Graphics/SVG/1.1/DTD/svg11.dtd">
<!-- Generated by graphviz version 2.47.1 (0)
 -->
<!-- Pages: 1 -->
<svg width="140pt" height="351pt"
 viewBox="0.00 0.00 140.00 351.00" xmlns="http://www.w3.org/2000/svg" xmlns:xlink="http://www.w3.org/1999/xlink">
<g id="graph0" class="graph" transform="scale(1 1) rotate(0) translate(4 347)">
<polygon fill="white" stroke="transparent" points="-4,4 -4,-347 136,-347 136,4 -4,4"/>
<text text-anchor="middle" x="66" y="-3.8" font-family="Times,serif" font-size="14.00">G</text>
<!-- 0 -->
<g id="node1" class="node">
<title>0</title>
<ellipse fill="none" stroke="#8b4513" cx="60" cy="-325" rx="18" ry="18"/>
<text text-anchor="middle" x="60" y="-321.3" font-family="Arial" font-size="14.00" fill="#8b4513">0</text>
</g>
<!-- 1 -->
<g id="node2" class="node">
<title>1</title>
<ellipse fill="none" stroke="#8b4513" cx="37" cy="-253" rx="18" ry="18"/>
<text text-anchor="middle" x="37" y="-249.3" font-family="Arial" font-size="14.00" fill="#8b4513">1</text>
</g>
<!-- 0&#45;&gt;1 -->
<g id="edge1" class="edge">
<title>0&#45;&gt;1</title>
<path fill="none" stroke="#4d4d4d" d="M54.67,-307.76C51.98,-299.58 48.65,-289.45 45.61,-280.2"/>
<polygon fill="#4d4d4d" stroke="#4d4d4d" points="48.91,-279.04 42.47,-270.63 42.26,-281.22 48.91,-279.04"/>
</g>
<!-- 4 -->
<g id="node3" class="node">
<title>4</title>
<ellipse fill="none" stroke="#8b4513" cx="79" cy="-37" rx="18" ry="18"/>
<text text-anchor="middle" x="79" y="-33.3" font-family="Arial" font-size="14.00" fill="#8b4513">4</text>
</g>
<!-- 0&#45;&gt;4 -->
<g id="edge2" class="edge">
<title>0&#45;&gt;4</title>
<path fill="none" stroke="#4d4d4d" d="M63.26,-307.09C70.3,-268.75 86.06,-172.24 83,-91 82.69,-82.67 82.09,-73.61 81.46,-65.38"/>
<polygon fill="#4d4d4d" stroke="#4d4d4d" points="84.93,-64.85 80.62,-55.17 77.95,-65.42 84.93,-64.85"/>
</g>
<!-- 2 -->
<g id="node4" class="node">
<title>2</title>
<ellipse fill="none" stroke="#8b4513" cx="18" cy="-181" rx="18" ry="18"/>
<text text-anchor="middle" x="18" y="-177.3" font-family="Arial" font-size="14.00" fill="#8b4513">2</text>
</g>
<!-- 1&#45;&gt;2 -->
<g id="edge3" class="edge">
<title>1&#45;&gt;2</title>
<path fill="none" stroke="#4d4d4d" d="M27.47,-237.5C24.2,-229.32 21.02,-218.84 18.78,-209.2"/>
<polygon fill="#4d4d4d" stroke="#4d4d4d" points="22.17,-208.31 16.76,-199.2 15.31,-209.69 22.17,-208.31"/>
</g>
<!-- 2&#45;&gt;1 -->
<g id="edge4" class="edge">
<title>2&#45;&gt;1</title>
<path fill="none" stroke="#4d4d4d" d="M27.62,-196.74C30.86,-204.88 34,-215.24 36.22,-224.8"/>
<polygon fill="#4d4d4d" stroke="#4d4d4d" points="32.8,-225.59 38.22,-234.7 39.67,-224.2 32.8,-225.59"/>
</g>
<!-- 3 -->
<g id="node5" class="node">
<title>3</title>
<ellipse fill="none" stroke="#8b4513" cx="56" cy="-109" rx="18" ry="18"/>
<text text-anchor="middle" x="56" y="-105.3" font-family="Arial" font-size="14.00" fill="#8b4513">3</text>
</g>
<!-- 2&#45;&gt;3 -->
<g id="edge5" class="edge">
<title>2&#45;&gt;3</title>
<path fill="none" stroke="#4d4d4d" d="M26.25,-164.81C31.12,-155.82 37.42,-144.23 42.96,-134.03"/>
<polygon fill="#4d4d4d" stroke="#4d4d4d" points="46.08,-135.62 47.77,-125.16 39.92,-132.28 46.08,-135.62"/>
</g>
<!-- 3&#45;&gt;1 -->
<g id="edge6" class="edge">
<title>3&#45;&gt;1</title>
<path fill="none" stroke="#4d4d4d" d="M54.03,-127.08C51.92,-145.01 48.43,-174.01 45,-199 43.84,-207.43 42.49,-216.59 41.23,-224.9"/>
<polygon fill="#4d4d4d" stroke="#4d4d4d" points="37.77,-224.41 39.71,-234.83 44.69,-225.48 37.77,-224.41"/>
</g>
<!-- 3&#45;&gt;4 -->
<g id="edge7" class="edge">
<title>3&#45;&gt;4</title>
<path fill="none" stroke="#4d4d4d" d="M61.33,-91.77C64.02,-83.58 67.35,-73.45 70.39,-64.19"/>
<polygon fill="#4d4d4d" stroke="#4d4d4d" points="73.74,-65.23 73.53,-54.63 67.09,-63.04 73.74,-65.23"/>
</g>
<!-- 5 -->
<g id="node6" class="node">
<title>5</title>
<ellipse fill="none" stroke="#8b4513" cx="114" cy="-325" rx="18" ry="18"/>
<text text-anchor="middle" x="114" y="-321.3" font-family="Arial" font-size="14.00" fill="#8b4513">5</text>
</g>
</g>
</svg>
