<?xml version="1.0" encoding="UTF-8" standalone="no"?>
<!DOCTYPE svg PUBLIC "-//W3C//DTD SVG 1.1//EN"
 "http://www.w3.org/Graphics/SVG/1.1/DTD/svg11.dtd">
<!-- Generated by graphviz version 2.47.1 (0)
 -->
<!-- Pages: 1 -->
<svg width="150pt" height="351pt"
 viewBox="0.00 0.00 150.13 351.00" xmlns="http://www.w3.org/2000/svg" xmlns:xlink="http://www.w3.org/1999/xlink">
<g id="graph0" class="graph" transform="scale(1 1) rotate(0) translate(4 347)">
<polygon fill="white" stroke="transparent" points="-4,4 -4,-347 146.13,-347 146.13,4 -4,4"/>
<text text-anchor="middle" x="69.38" y="-3.8" font-family="Times,serif" font-size="14.00">G</text>
<!-- 0 -->
<g id="node1" class="node">
<title>0</title>
<ellipse fill="none" stroke="#8b4513" cx="110" cy="-325" rx="18" ry="18"/>
<text text-anchor="middle" x="110" y="-321.3" font-family="Arial" font-size="14.00" fill="#8b4513">0</text>
</g>
<!-- 1 -->
<g id="node2" class="node">
<title>1</title>
<ellipse fill="none" stroke="#8b4513" cx="64" cy="-253" rx="18" ry="18"/>
<text text-anchor="middle" x="64" y="-249.3" font-family="Arial" font-size="14.00" fill="#8b4513">1</text>
</g>
<!-- 0&#45;&gt;1 -->
<g id="edge1" class="edge">
<title>0&#45;&gt;1</title>
<path fill="none" stroke="#4d4d4d" d="M100.47,-309.5C94.3,-300.11 86.14,-287.69 79.1,-276.98"/>
<polygon fill="#4d4d4d" stroke="#4d4d4d" points="81.94,-274.92 73.52,-268.49 76.09,-278.77 81.94,-274.92"/>
</g>
<!-- 4 -->
<g id="node3" class="node">
<title>4</title>
<ellipse fill="none" stroke="#8b4513" cx="110" cy="-37" rx="18" ry="18"/>
<text text-anchor="middle" x="110" y="-33.3" font-family="Arial" font-size="14.00" fill="#8b4513">4</text>
</g>
<!-- 0&#45;&gt;4 -->
<g id="edge2" class="edge">
<title>0&#45;&gt;4</title>
<path fill="none" stroke="#4d4d4d" d="M114.76,-307.37C117.64,-296.97 121.28,-283.26 124,-271 134.48,-223.8 142.13,-211.07 137,-163 133.31,-128.42 124.03,-89.37 117.38,-64.25"/>
<polygon fill="#4d4d4d" stroke="#4d4d4d" points="120.7,-63.13 114.71,-54.4 113.95,-64.97 120.7,-63.13"/>
</g>
<!-- 2 -->
<g id="node4" class="node">
<title>2</title>
<ellipse fill="none" stroke="#8b4513" cx="18" cy="-181" rx="18" ry="18"/>
<text text-anchor="middle" x="18" y="-177.3" font-family="Arial" font-size="14.00" fill="#8b4513">2</text>
</g>
<!-- 1&#45;&gt;2 -->
<g id="edge3" class="edge">
<title>1&#45;&gt;2</title>
<path fill="none" stroke="#4d4d4d" d="M50.98,-240.13C43.67,-231.17 34.95,-218.55 28.15,-207.36"/>
<polygon fill="#4d4d4d" stroke="#4d4d4d" points="31,-205.3 22.96,-198.4 24.94,-208.81 31,-205.3"/>
</g>
<!-- 5 -->
<g id="node5" class="node">
<title>5</title>
<ellipse fill="none" stroke="#8b4513" cx="110" cy="-181" rx="18" ry="18"/>
<text text-anchor="middle" x="110" y="-177.3" font-family="Arial" font-size="14.00" fill="#8b4513">5</text>
</g>
<!-- 1&#45;&gt;5 -->
<g id="edge4" class="edge">
<title>1&#45;&gt;5</title>
<path fill="none" stroke="#4d4d4d" d="M73.53,-237.5C79.7,-228.11 87.86,-215.69 94.9,-204.98"/>
<polygon fill="#4d4d4d" stroke="#4d4d4d" points="97.91,-206.77 100.48,-196.49 92.06,-202.93 97.91,-206.77"/>
</g>
<!-- 2&#45;&gt;1 -->
<g id="edge5" class="edge">
<title>2&#45;&gt;1</title>
<path fill="none" stroke="#4d4d4d" d="M31.02,-193.87C38.29,-202.79 46.97,-215.33 53.76,-226.48"/>
<polygon fill="#4d4d4d" stroke="#4d4d4d" points="50.89,-228.52 58.94,-235.41 56.95,-225 50.89,-228.52"/>
</g>
<!-- 3 -->
<g id="node6" class="node">
<title>3</title>
<ellipse fill="none" stroke="#8b4513" cx="64" cy="-109" rx="18" ry="18"/>
<text text-anchor="middle" x="64" y="-105.3" font-family="Arial" font-size="14.00" fill="#8b4513">3</text>
</g>
<!-- 2&#45;&gt;3 -->
<g id="edge6" class="edge">
<title>2&#45;&gt;3</title>
<path fill="none" stroke="#4d4d4d" d="M27.53,-165.5C33.7,-156.11 41.86,-143.69 48.9,-132.98"/>
<polygon fill="#4d4d4d" stroke="#4d4d4d" points="51.91,-134.77 54.48,-124.49 46.06,-130.92 51.91,-134.77"/>
</g>
<!-- 5&#45;&gt;0 -->
<g id="edge7" class="edge">
<title>5&#45;&gt;0</title>
<path fill="none" stroke="#4d4d4d" d="M110,-199.19C110,-223.42 110,-267.89 110,-296.68"/>
<polygon fill="#4d4d4d" stroke="#4d4d4d" points="106.5,-296.87 110,-306.87 113.5,-296.87 106.5,-296.87"/>
</g>
<!-- 3&#45;&gt;1 -->
<g id="edge8" class="edge">
<title>3&#45;&gt;1</title>
<path fill="none" stroke="#4d4d4d" d="M64,-127.19C64,-151.42 64,-195.89 64,-224.68"/>
<polygon fill="#4d4d4d" stroke="#4d4d4d" points="60.5,-224.87 64,-234.87 67.5,-224.87 60.5,-224.87"/>
</g>
<!-- 3&#45;&gt;4 -->
<g id="edge9" class="edge">
<title>3&#45;&gt;4</title>
<path fill="none" stroke="#4d4d4d" d="M73.53,-93.5C79.7,-84.11 87.86,-71.69 94.9,-60.98"/>
<polygon fill="#4d4d4d" stroke="#4d4d4d" points="97.91,-62.76 100.48,-52.48 92.06,-58.92 97.91,-62.76"/>
</g>
</g>
</svg>
