<?xml version="1.0" encoding="UTF-8" standalone="no"?>
<!DOCTYPE svg PUBLIC "-//W3C//DTD SVG 1.1//EN"
 "http://www.w3.org/Graphics/SVG/1.1/DTD/svg11.dtd">
<!-- Generated by graphviz version 2.47.1 (0)
 -->
<!-- Pages: 1 -->
<svg width="154pt" height="207pt"
 viewBox="0.00 0.00 154.00 207.00" xmlns="http://www.w3.org/2000/svg" xmlns:xlink="http://www.w3.org/1999/xlink">
<g id="graph0" class="graph" transform="scale(1 1) rotate(0) translate(4 203)">
<polygon fill="white" stroke="transparent" points="-4,4 -4,-203 150,-203 150,4 -4,4"/>
<text text-anchor="middle" x="73" y="-3.8" font-family="Times,serif" font-size="14.00">G</text>
<!-- A -->
<g id="node1" class="node">
<title>A</title>
<ellipse fill="none" stroke="#8b4513" cx="18" cy="-181" rx="18" ry="18"/>
<text text-anchor="middle" x="18" y="-177.3" font-family="Arial" font-size="14.00" fill="#8b4513">A</text>
</g>
<!-- D -->
<g id="node2" class="node">
<title>D</title>
<ellipse fill="none" stroke="#8b4513" cx="18" cy="-109" rx="18" ry="18"/>
<text text-anchor="middle" x="18" y="-105.3" font-family="Arial" font-size="14.00" fill="#8b4513">D</text>
</g>
<!-- A&#45;&gt;D -->
<g id="edge1" class="edge">
<title>A&#45;&gt;D</title>
<path fill="none" stroke="#4d4d4d" d="M12.2,-163.76C11.29,-155.64 11.03,-145.59 11.44,-136.39"/>
<polygon fill="#4d4d4d" stroke="#4d4d4d" points="14.95,-136.39 12.21,-126.15 7.97,-135.86 14.95,-136.39"/>
</g>
<!-- D&#45;&gt;A -->
<g id="edge2" class="edge">
<title>D&#45;&gt;A</title>
<path fill="none" stroke="#4d4d4d" d="M23.79,-126.15C24.71,-134.26 24.97,-144.3 24.57,-153.51"/>
<polygon fill="#4d4d4d" stroke="#4d4d4d" points="21.06,-153.53 23.8,-163.76 28.04,-154.05 21.06,-153.53"/>
</g>
<!-- C -->
<g id="node3" class="node">
<title>C</title>
<ellipse fill="none" stroke="#8b4513" cx="64" cy="-37" rx="18" ry="18"/>
<text text-anchor="middle" x="64" y="-33.3" font-family="Arial" font-size="14.00" fill="#8b4513">C</text>
</g>
<!-- D&#45;&gt;C -->
<g id="edge3" class="edge">
<title>D&#45;&gt;C</title>
<path fill="none" stroke="#4d4d4d" d="M27.53,-93.5C33.7,-84.11 41.86,-71.69 48.9,-60.98"/>
<polygon fill="#4d4d4d" stroke="#4d4d4d" points="51.91,-62.76 54.48,-52.48 46.06,-58.92 51.91,-62.76"/>
</g>
<!-- C&#45;&gt;A -->
<g id="edge4" class="edge">
<title>C&#45;&gt;A</title>
<path fill="none" stroke="#4d4d4d" d="M61.71,-55.09C58.96,-73.28 53.61,-102.73 45,-127 41.5,-136.86 36.54,-147.22 31.83,-156.14"/>
<polygon fill="#4d4d4d" stroke="#4d4d4d" points="28.62,-154.71 26.89,-165.16 34.76,-158.07 28.62,-154.71"/>
</g>
<!-- B -->
<g id="node4" class="node">
<title>B</title>
<ellipse fill="none" stroke="#8b4513" cx="110" cy="-109" rx="18" ry="18"/>
<text text-anchor="middle" x="110" y="-105.3" font-family="Arial" font-size="14.00" fill="#8b4513">B</text>
</g>
<!-- B&#45;&gt;C -->
<g id="edge5" class="edge">
<title>B&#45;&gt;C</title>
<path fill="none" stroke="#4d4d4d" d="M100.47,-93.5C94.3,-84.11 86.14,-71.69 79.1,-60.98"/>
<polygon fill="#4d4d4d" stroke="#4d4d4d" points="81.94,-58.92 73.52,-52.48 76.09,-62.76 81.94,-58.92"/>
</g>
<!-- B&#45;&gt;B -->
<g id="edge6" class="edge">
<title>B&#45;&gt;B</title>
<path fill="none" stroke="#4d4d4d" d="M124.04,-120.76C134.91,-125.15 146,-121.23 146,-109 146,-100.59 140.76,-96.11 133.95,-95.56"/>
<polygon fill="#4d4d4d" stroke="#4d4d4d" points="133.31,-92.12 124.04,-97.24 134.48,-99.02 133.31,-92.12"/>
</g>
<!-- E -->
<g id="node5" class="node">
<title>E</title>
<ellipse fill="none" stroke="#8b4513" cx="72" cy="-181" rx="18" ry="18"/>
<text text-anchor="middle" x="72" y="-177.3" font-family="Arial" font-size="14.00" fill="#8b4513">E</text>
</g>
</g>
</svg>
