<?xml version="1.0" encoding="UTF-8" standalone="no"?>
<!DOCTYPE svg PUBLIC "-//W3C//DTD SVG 1.1//EN"
 "http://www.w3.org/Graphics/SVG/1.1/DTD/svg11.dtd">
<!-- Generated by graphviz version 2.47.1 (0)
 -->
<!-- Pages: 1 -->
<svg width="160pt" height="213pt"
 viewBox="0.00 0.00 159.80 212.60" xmlns="http://www.w3.org/2000/svg" xmlns:xlink="http://www.w3.org/1999/xlink">
<g id="graph0" class="graph" transform="scale(1 1) rotate(0) translate(4 208.6)">
<polygon fill="white" stroke="transparent" points="-4,4 -4,-208.6 155.8,-208.6 155.8,4 -4,4"/>
<text text-anchor="middle" x="75.9" y="-3.8" font-family="Times,serif" font-size="14.00">G</text>
<!-- a -->
<g id="node1" class="node">
<title>a</title>
<ellipse fill="none" stroke="#8b4513" cx="41" cy="-186.6" rx="18" ry="18"/>
<text text-anchor="middle" x="41" y="-182.9" font-family="Arial" font-size="14.00" fill="#8b4513">a</text>
</g>
<!-- d -->
<g id="node2" class="node">
<title>d</title>
<ellipse fill="none" stroke="#8b4513" cx="18" cy="-111.8" rx="18" ry="18"/>
<text text-anchor="middle" x="18" y="-108.1" font-family="Arial" font-size="14.00" fill="#8b4513">d</text>
</g>
<!-- a&#45;&#45;d -->
<g id="edge1" class="edge">
<title>a&#45;&#45;d</title>
<path fill="none" stroke="#4d4d4d" d="M35.78,-169.08C32.02,-157.16 26.96,-141.15 23.2,-129.25"/>
</g>
<!-- c -->
<g id="node3" class="node">
<title>c</title>
<ellipse fill="none" stroke="#8b4513" cx="64" cy="-37" rx="18" ry="18"/>
<text text-anchor="middle" x="64" y="-33.3" font-family="Arial" font-size="14.00" fill="#8b4513">c</text>
</g>
<!-- d&#45;&#45;c -->
<g id="edge2" class="edge">
<title>d&#45;&#45;c</title>
<path fill="none" stroke="#4d4d4d" d="M27.31,-96.07C35.29,-83.44 46.73,-65.33 54.7,-52.71"/>
</g>
<!-- c&#45;&#45;a -->
<g id="edge3" class="edge">
<title>c&#45;&#45;a</title>
<path fill="none" stroke="#4d4d4d" d="M61.32,-55.19C56.88,-83.68 48.05,-140.35 43.64,-168.67"/>
</g>
<!-- bb -->
<g id="node4" class="node">
<title>bb</title>
<ellipse fill="none" stroke="#8b4513" cx="113" cy="-111.8" rx="21" ry="21"/>
<text text-anchor="middle" x="113" y="-108.1" font-family="Arial" font-size="14.00" fill="#8b4513">bb</text>
</g>
<!-- bb&#45;&#45;c -->
<g id="edge4" class="edge">
<title>bb&#45;&#45;c</title>
<path fill="none" stroke="#4d4d4d" d="M101.64,-93.91C93.15,-81.31 81.69,-64.28 73.65,-52.34"/>
</g>
<!-- bb&#45;&#45;bb -->
<g id="edge5" class="edge">
<title>bb&#45;&#45;bb</title>
<path fill="none" stroke="#4d4d4d" d="M129.75,-124.45C140.92,-128.01 151.8,-123.79 151.8,-111.8 151.8,-99.8 140.92,-95.58 129.75,-99.15"/>
</g>
<!-- e -->
<g id="node5" class="node">
<title>e</title>
<ellipse fill="none" stroke="#8b4513" cx="95" cy="-186.6" rx="18" ry="18"/>
<text text-anchor="middle" x="95" y="-182.9" font-family="Arial" font-size="14.00" fill="#8b4513">e</text>
</g>
</g>
</svg>
