<?xml version="1.0" encoding="UTF-8" standalone="no"?>
<!DOCTYPE svg PUBLIC "-//W3C//DTD SVG 1.1//EN"
 "http://www.w3.org/Graphics/SVG/1.1/DTD/svg11.dtd">
<!-- Generated by graphviz version 2.47.1 (0)
 -->
<!-- Pages: 1 -->
<svg width="160pt" height="213pt"
 viewBox="0.00 0.00 159.80 212.60" xmlns="http://www.w3.org/2000/svg" xmlns:xlink="http://www.w3.org/1999/xlink">
<g id="graph0" class="graph" transform="scale(1 1) rotate(0) translate(4 208.6)">
<polygon fill="white" stroke="transparent" points="-4,4 -4,-208.6 155.8,-208.6 155.8,4 -4,4"/>
<text text-anchor="middle" x="75.9" y="-3.8" font-family="Times,serif" font-size="14.00">G</text>
<!-- a -->
<g id="node1" class="node">
<title>a</title>
<ellipse fill="none" stroke="#8b4513" cx="18" cy="-186.6" rx="18" ry="18"/>
<text text-anchor="middle" x="18" y="-182.9" font-family="Arial" font-size="14.00" fill="#8b4513">a</text>
</g>
<!-- d -->
<g id="node2" class="node">
<title>d</title>
<ellipse fill="none" stroke="#8b4513" cx="18" cy="-111.8" rx="18" ry="18"/>
<text text-anchor="middle" x="18" y="-108.1" font-family="Arial" font-size="14.00" fill="#8b4513">d</text>
</g>
<!-- a&#45;&gt;d -->
<g id="edge1" class="edge">
<title>a&#45;&gt;d</title>
<path fill="none" stroke="#4d4d4d" d="M12.28,-169.44C11.26,-160.49 11,-149.14 11.49,-138.95"/>
<polygon fill="#4d4d4d" stroke="#4d4d4d" points="14.99,-139.15 12.29,-128.91 8.01,-138.6 14.99,-139.15"/>
</g>
<!-- d&#45;&gt;a -->
<g id="edge2" class="edge">
<title>d&#45;&gt;a</title>
<path fill="none" stroke="#4d4d4d" d="M23.71,-128.91C24.74,-137.85 25,-149.2 24.51,-159.39"/>
<polygon fill="#4d4d4d" stroke="#4d4d4d" points="21.01,-159.2 23.72,-169.44 27.99,-159.74 21.01,-159.2"/>
</g>
<!-- c -->
<g id="node3" class="node">
<title>c</title>
<ellipse fill="none" stroke="#8b4513" cx="64" cy="-37" rx="18" ry="18"/>
<text text-anchor="middle" x="64" y="-33.3" font-family="Arial" font-size="14.00" fill="#8b4513">c</text>
</g>
<!-- d&#45;&gt;c -->
<g id="edge3" class="edge">
<title>d&#45;&gt;c</title>
<path fill="none" stroke="#4d4d4d" d="M27.31,-96.07C33.61,-86.1 42.06,-72.73 49.26,-61.33"/>
<polygon fill="#4d4d4d" stroke="#4d4d4d" points="52.32,-63.03 54.7,-52.71 46.4,-59.29 52.32,-63.03"/>
</g>
<!-- c&#45;&gt;a -->
<g id="edge4" class="edge">
<title>c&#45;&gt;a</title>
<path fill="none" stroke="#4d4d4d" d="M61.99,-55.12C59.41,-74.36 54.13,-106.33 45,-132.6 41.56,-142.48 36.62,-152.85 31.89,-161.76"/>
<polygon fill="#4d4d4d" stroke="#4d4d4d" points="28.69,-160.32 26.94,-170.77 34.82,-163.69 28.69,-160.32"/>
</g>
<!-- bb -->
<g id="node4" class="node">
<title>bb</title>
<ellipse fill="none" stroke="#8b4513" cx="113" cy="-111.8" rx="21" ry="21"/>
<text text-anchor="middle" x="113" y="-108.1" font-family="Arial" font-size="14.00" fill="#8b4513">bb</text>
</g>
<!-- bb&#45;&gt;c -->
<g id="edge5" class="edge">
<title>bb&#45;&gt;c</title>
<path fill="none" stroke="#4d4d4d" d="M101.64,-93.91C95.01,-84.07 86.56,-71.52 79.35,-60.81"/>
<polygon fill="#4d4d4d" stroke="#4d4d4d" points="82.14,-58.68 73.65,-52.34 76.33,-62.59 82.14,-58.68"/>
</g>
<!-- bb&#45;&gt;bb -->
<g id="edge6" class="edge">
<title>bb&#45;&gt;bb</title>
<path fill="none" stroke="#4d4d4d" d="M129.75,-124.45C140.92,-128.01 151.8,-123.79 151.8,-111.8 151.8,-103.55 146.66,-98.98 139.81,-98.09"/>
<polygon fill="#4d4d4d" stroke="#4d4d4d" points="139.33,-94.62 129.75,-99.15 140.06,-101.58 139.33,-94.62"/>
</g>
<!-- e -->
<g id="node5" class="node">
<title>e</title>
<ellipse fill="none" stroke="#8b4513" cx="72" cy="-186.6" rx="18" ry="18"/>
<text text-anchor="middle" x="72" y="-182.9" font-family="Arial" font-size="14.00" fill="#8b4513">e</text>
</g>
</g>
</svg>
